<svg width="52" height="52" viewBox="0 0 52 52" fill="none" xmlns="http://www.w3.org/2000/svg">
<path d="M17.5499 26C19.791 26 21.9403 25.1097 23.525 23.525C25.1096 21.9403 25.9999 19.7911 25.9999 17.55C25.9999 15.3089 25.1096 13.1596 23.525 11.5749C21.9403 9.99024 19.791 9.09998 17.5499 9.09998C15.3088 9.09998 13.1595 9.99024 11.5749 11.5749C9.99017 13.1596 9.0999 15.3089 9.0999 17.55C9.0999 19.7911 9.99017 21.9403 11.5749 23.525C13.1595 25.1097 15.3088 26 17.5499 26ZM32.3361 39.377C33.7141 39.9412 35.4665 40.3 37.6973 40.3C48.0973 40.3 48.0973 32.5 48.0973 32.5C48.0973 31.4661 47.6868 30.4745 46.9559 29.7432C46.2251 29.0119 45.2338 28.6007 44.1999 28.6H32.1671C33.1889 29.8376 33.8025 31.421 33.8025 33.15V34.0756C33.7972 34.2945 33.7824 34.5131 33.7583 34.7308C33.5829 36.3553 33.1012 37.9318 32.3387 39.377H32.3361ZM44.1999 19.5C44.1999 21.2239 43.5151 22.8772 42.2961 24.0962C41.0771 25.3152 39.4238 26 37.6999 26C35.976 26 34.3227 25.3152 33.1037 24.0962C31.8847 22.8772 31.1999 21.2239 31.1999 19.5C31.1999 17.7761 31.8847 16.1228 33.1037 14.9038C34.3227 13.6848 35.976 13 37.6999 13C39.4238 13 41.0771 13.6848 42.2961 14.9038C43.5151 16.1228 44.1999 17.7761 44.1999 19.5ZM3.8999 33.8C3.8999 32.4208 4.44776 31.0982 5.42295 30.123C6.39814 29.1478 7.72078 28.6 9.0999 28.6H25.9999C27.379 28.6 28.7017 29.1478 29.6769 30.123C30.652 31.0982 31.1999 32.4208 31.1999 33.8C31.1999 33.8 31.1999 44.2 17.5499 44.2C3.8999 44.2 3.8999 33.8 3.8999 33.8ZM33.7999 34.0756L33.7921 34.242L33.7973 34.0756H33.7999Z" fill="#11263C"/>
</svg>
